<svg xmlns="http://www.w3.org/2000/svg" viewBox="0 0 173.6732 83.0056"><defs><style>.cls-1{fill:#ed2675;}</style></defs><title>logo</title><g id="Layer_2" data-name="Layer 2"><g id="Layer_1-2" data-name="Layer 1"><path class="cls-1" d="M0,83.0056H83.0056V0H0Zm46.8949-69.39H60.7758c8.2783,0,14.2988,6.7734,14.2988,16.9746,0,9.6162-4.1816,13.8809-7.4424,15.3857L75.5756,69.39H66.21L59.6049,48.0668H55.5912V69.39H46.8949Zm-30.5176,0,7.4414,44.4854,7.4424-44.4854h8.9473L28.8363,69.39H18.8021L7.43,13.6161Z"/><path class="cls-1" d="M66.1273,30.8417c0-5.686-2.2578-9.5327-6.6064-9.5327h-3.93V40.3739h3.93C63.87,40.3739,66.1273,36.4442,66.1273,30.8417Z"/><path class="cls-1" d="M101.5765,41.5082A17.4254,17.4254,0,0,0,89.973,45.6874l2.64,4.6743a11.1779,11.1779,0,0,1,7.7539-3.1343c3.52,0,5.8291,1.76,5.8291,4.4541v3.5747c-1.76-2.09-4.8945-3.2446-8.4141-3.2446-4.2344,0-9.2383,2.3647-9.2383,8.5791,0,5.9385,5.0039,8.7988,9.2383,8.7988a10.9885,10.9885,0,0,0,8.4141-3.41v2.75H113.18V51.5717C113.18,43.9276,107.6253,41.5082,101.5765,41.5082ZM106.1956,62.35a6.9839,6.9839,0,0,1-5.6094,2.31c-2.749,0-5.0039-1.43-5.0039-3.9043,0-2.585,2.2549-4.0146,5.0039-4.0146a6.9839,6.9839,0,0,1,5.6094,2.31Z"/><polygon class="cls-1" points="130.724 60.645 123.795 42.168 116.316 42.168 126.985 68.729 134.519 68.729 145.187 42.168 137.653 42.168 130.724 60.645"/><path class="cls-1" d="M173.6732,56.1361c0-8.689-5.39-14.6279-13.3086-14.6279a13.5177,13.5177,0,0,0-13.748,13.9131c0,8.5239,6.1045,13.9683,14.1885,13.9683,4.124,0,8.3037-1.2646,10.9434-3.6846l-3.08-4.51a11.3078,11.3078,0,0,1-7.0937,2.64c-4.51,0-7.2041-2.8047-7.6436-6.1592h19.7422Zm-19.8525-3.1895a6.3829,6.3829,0,0,1,6.5439-5.8843,6.1526,6.1526,0,0,1,6.5439,5.8843Z"/></g></g></svg>